Coordinates
version=1
nRows=10
nColumns=40
inDegrees=yes

Units are S.I. units (second, meters, Newtons, ...)
Angles are in degrees.

endheader
time	pelvis_tilt	pelvis_list	pelvis_rotation	pelvis_tx	pelvis_ty	pelvis_tz	hip_flexion_r	hip_adduction_r	hip_rotation_r	knee_angle_r	knee_angle_r_beta	ankle_angle_r	subtalar_angle_r	mtp_angle_r	hip_flexion_l	hip_adduction_l	hip_rotation_l	knee_angle_l	knee_angle_l_beta	ankle_angle_l	subtalar_angle_l	mtp_angle_l	lumbar_extension	lumbar_bending	lumbar_rotation	arm_flex_r	arm_add_r	arm_rot_r	elbow_flex_r	pro_sup_r	wrist_flex_r	wrist_dev_r	arm_flex_l	arm_add_l	arm_rot_l	elbow_flex_l	pro_sup_l	wrist_flex_l	wrist_dev_l
      8.70000000	     -1.31743934	     -3.24554350	     -4.45109296	      0.69131736	      0.93202687	      0.43753620	     27.51710304	     -6.36847084	     -2.58635309	     70.24029317	     70.24029317	     -3.51493722	    -17.49276148	      3.65443134	     12.77994906	     -3.20847617	     -5.46766013	     23.43819475	     23.43819475	     13.97319932	    -12.99751499	      0.53189871	     -9.33186856	      6.23811113	      0.71879376	     -1.43139510	    -11.01679036	    -10.89404386	     26.80631313	     46.47501884	      0.00000000	      0.00000000	     11.83689078	    -13.32474029	     -6.73963101	     56.17084827	     46.91378320	      0.00000000	      0.00000000
      8.71385714	     -1.29056755	     -3.36942354	     -4.69349355	      0.69034433	      0.93306225	      0.43696212	     28.29395251	     -5.86467157	     -2.56931696	     68.60825132	     68.60825132	     -2.86031854	    -17.49077850	      3.30401824	     11.83986888	     -3.23365573	     -5.68154269	     22.66649119	     22.66649119	     14.13083872	    -12.81062504	      0.56507936	     -9.42474626	      6.32066958	      0.85850239	     -3.04798655	    -11.12660150	    -10.87671048	     25.86355712	     46.50225720	      0.00000000	      0.00000000	     12.83885052	    -13.55294504	     -7.00505947	     57.66079409	     46.96723360	      0.00000000	      0.00000000
      8.72771429	     -1.42209580	     -3.39826244	     -4.90726281	      0.68914286	      0.93351598	      0.43630576	     29.19433618	     -5.44962842	     -2.50833957	     66.84855146	     66.84855146	     -2.05353755	    -17.30517896	      3.19887340	     11.38430123	     -3.19627718	     -5.88922548	     22.42650584	     22.42650584	     14.34526437	    -12.78093587	      0.53122368	     -9.26611814	      6.32513299	      0.26085097	     -4.20140748	    -11.20127155	    -10.90794509	     25.42448700	     46.51380809	      0.00000000	      0.00000000	     13.71437943	    -14.10657483	     -7.20645357	     58.20596012	     46.99750240	      0.00000000	      0.00000000
      8.74157143	     -1.29532915	     -3.67143303	     -5.13131095	      0.68821737	      0.93465826	      0.43595002	     29.52655528	     -4.78916033	     -2.65603212	     64.59961439	     64.59961439	     -1.74232114	    -17.45848208	      2.48479779	     10.14712189	     -3.39506564	     -6.23191765	     21.29188430	     21.29188430	     14.30993265	    -12.26162623	      0.05707407	     -9.68424988	      6.51895094	      0.47667264	     -5.65660336	    -11.27138755	    -10.95599104	     23.93691838	     46.58620460	      0.00000000	      0.00000000	     13.68398394	    -14.45595800	     -7.94759464	     62.73123756	     47.14527294	      0.00000000	      0.00000000
      8.75542857	     -1.29981311	     -3.80997225	     -5.33193221	      0.68710443	      0.93528370	      0.43554236	     29.95137560	     -4.27498567	     -2.76393331	     62.17972232	     62.17972232	     -1.11590397	    -17.28636372	      2.49718132	      9.35107122	     -3.45858977	     -6.47040379	     20.66861924	     20.66861924	     14.46864748	    -12.00174350	      0.03198060	     -9.82062257	      6.60257636	      0.57514177	     -7.08909857	    -11.37685553	    -10.94926700	     23.17549726	     46.61105799	      0.00000000	      0.00000000	     14.64955426	    -14.64067555	     -8.35281495	     64.13812687	     47.20929153	      0.00000000	      0.00000000
      8.76928571	     -1.34024988	     -3.93348400	     -5.51214983	      0.68594534	      0.93568907	      0.43522120	     30.26797422	     -3.80980827	     -2.96226030	     59.44060762	     59.44060762	     -0.51641301	    -17.00516125	      2.45108935	      8.65637833	     -3.52933517	     -6.74458939	     20.13067684	     20.13067684	     14.62321915	    -11.67773763	     -0.07060924	     -9.94533702	      6.66407733	      0.57108501	     -8.40379893	    -11.47592377	    -10.98593138	     22.62230292	     46.63214434	      0.00000000	      0.00000000	     15.40747558	    -14.88966850	     -8.75110710	     65.76455314	     47.27410910	      0.00000000	      0.00000000
      8.78314286	     -1.47870907	     -4.06068528	     -5.65393190	      0.68467097	      0.93581545	      0.43497042	     30.53395615	     -3.40273942	     -3.33144129	     56.35311918	     56.35311918	      0.03044219	    -16.52031813	      2.44572262	      8.15185598	     -3.62006249	     -6.94667488	     19.71436803	     19.71436803	     14.78611222	    -11.42068572	     -0.15871138	     -9.95155825	      6.73123293	      0.39375267	     -9.56799583	    -11.58801741	    -11.03706132	     22.24682420	     46.64576074	      0.00000000	      0.00000000	     16.07622538	    -15.16395050	     -9.04718654	     66.97688596	     47.32132494	      0.00000000	      0.00000000
      8.79700000	     -1.57092310	     -4.11060275	     -5.83002862	      0.68341525	      0.93578146	      0.43489273	     30.55659058	     -3.07613299	     -3.71727740	     52.83245871	     52.83245871	      0.04801252	    -16.13243811	      0.74109550	      7.60634623	     -3.67398751	     -7.37717510	     19.30903234	     19.30903234	     14.90207173	    -10.89393854	     -0.66736700	    -10.13027461	      6.67611215	     -0.04437780	    -10.55103388	    -11.69233075	    -11.22130925	     22.41131086	     46.67058190	      0.00000000	      0.00000000	     15.87505655	    -15.54841009	    -10.06653284	     70.12324035	     47.46821660	      0.00000000	      0.00000000
      8.81085714	     -1.72925927	     -4.14297386	     -5.97753714	      0.68206399	      0.93556177	      0.43492268	     30.53186586	     -2.78594702	     -4.21955056	     49.07918693	     49.07918693	      0.46383728	    -15.25688422	      0.31118613	      7.18692474	     -3.70166779	     -7.67021983	     18.97855547	     18.97855547	     15.08711643	    -10.52613429	     -0.82063752	    -10.19319881	      6.61743235	      0.02459949	    -11.61535067	    -11.74597511	    -11.24544031	     22.21204024	     46.67922235	      0.00000000	      0.00000000	     16.58289797	    -15.61281913	    -10.33853654	     71.35725041	     47.51895360	      0.00000000	      0.00000000
      8.82471429	     -1.97997368	     -4.17701725	     -6.09657681	      0.68063239	      0.93511651	      0.43507797	     30.43394756	     -2.49662762	     -4.85245915	     45.03260832	     45.03260832	      0.93313824	    -14.05424984	      0.30276864	      6.95328483	     -3.74541308	     -7.85722600	     18.78725235	     18.78725235	     15.27364282	    -10.32766558	     -0.94427040	    -10.14505006	      6.57990975	     -0.09363421	    -12.43018340	    -11.83043367	    -11.29156574	     22.11538893	     46.68220931	      0.00000000	      0.00000000	     17.15231469	    -15.82165021	    -10.50309633	     72.12362616	     47.54712689	      0.00000000	      0.00000000
